<svg width="251" height="82" viewBox="0 0 251 82" fill="none" xmlns="http://www.w3.org/2000/svg">
<path d="M121.69 46.1017C121.69 36.598 107.921 40.2648 107.921 34.3904C107.921 31.8835 109.829 30.6862 112.299 30.7611C114.993 30.8359 116.527 32.4448 116.677 34.2033H121.391C121.017 29.7508 117.5 27.1317 112.523 27.1317C107.21 27.1317 103.581 29.9753 103.581 34.5401C103.581 44.1186 117.387 40.0403 117.387 46.3262C117.387 48.5337 115.704 50.1426 112.71 50.1426C109.755 50.1426 108.258 48.4215 108.071 46.2888H103.506C103.506 50.8909 107.51 53.7346 112.71 53.7346C118.51 53.7346 121.69 49.993 121.69 46.1017ZM127.397 47.748C127.397 51.9386 129.679 53.4727 133.346 53.4727H136.713V49.9181H134.094C132.298 49.9181 131.7 49.282 131.7 47.748V36.3361H136.713V32.8564H131.7V27.7303H127.397V32.8564H124.965V36.3361H127.397V47.748ZM160.288 43.1458C160.288 36.6728 155.649 32.5196 149.774 32.5196C143.9 32.5196 139.26 36.6728 139.26 43.1458C139.26 49.6188 143.713 53.8094 149.587 53.8094C155.499 53.8094 160.288 49.6188 160.288 43.1458ZM143.601 43.1458C143.601 38.4688 146.482 36.2238 149.7 36.2238C152.88 36.2238 155.911 38.4688 155.911 43.1458C155.911 47.8228 152.768 50.1052 149.587 50.1052C146.369 50.1052 143.601 47.8228 143.601 43.1458ZM168.77 42.622C168.77 38.2443 170.716 36.9347 173.859 36.9347H174.944V32.5196C172.026 32.5196 169.968 33.7918 168.77 35.8496V32.8564H164.505V53.4727H168.77V42.622ZM177.443 43.071C177.443 49.4317 181.746 53.8094 187.096 53.8094C190.539 53.8094 193.008 52.1631 194.318 50.4045V53.4727H198.621V32.8564H194.318V35.8496C193.046 34.1659 190.651 32.5196 187.171 32.5196C181.746 32.5196 177.443 36.7102 177.443 43.071ZM194.318 43.1458C194.318 47.5983 191.287 50.1052 188.069 50.1052C184.889 50.1052 181.821 47.5235 181.821 43.071C181.821 38.6184 184.889 36.2238 188.069 36.2238C191.287 36.2238 194.318 38.7307 194.318 43.1458ZM202.801 43.071C202.801 49.4317 207.104 53.8094 212.529 53.8094C215.897 53.8094 218.366 52.1257 219.676 50.3671V53.8094C219.676 57.9252 217.206 59.9457 213.914 59.9457C210.958 59.9457 208.676 58.4864 208.039 56.3537H203.811C204.335 60.9185 208.414 63.6498 213.914 63.6498C220.349 63.6498 223.979 59.4218 223.979 53.8094V32.8564H219.676V35.8496C218.404 34.0911 215.897 32.5196 212.529 32.5196C207.104 32.5196 202.801 36.7102 202.801 43.071ZM219.676 43.1458C219.676 47.5983 216.645 50.1052 213.427 50.1052C210.247 50.1052 207.179 47.5235 207.179 43.071C207.179 38.6184 210.247 36.2238 213.427 36.2238C216.645 36.2238 219.676 38.7307 219.676 43.1458ZM238.262 36.1116C241.442 36.1116 243.949 38.132 244.024 41.3124H232.612C233.061 38.0572 235.381 36.1116 238.262 36.1116ZM247.915 47.3364H243.313C242.527 48.9453 241.068 50.2175 238.449 50.2175C235.306 50.2175 232.874 48.1596 232.575 44.7547H248.327C248.439 44.0438 248.476 43.3703 248.476 42.6594C248.476 36.598 244.323 32.5196 238.449 32.5196C232.35 32.5196 228.159 36.6728 228.159 43.1458C228.159 49.6188 232.537 53.8094 238.449 53.8094C243.5 53.8094 246.755 50.9284 247.915 47.3364Z" fill="white"/>
<rect opacity="0.2" width="74.8323" height="74.8323" rx="37.4161" fill="white"/>
<rect x="32.7383" y="31.1797" width="49.8882" height="49.8882" rx="24.9441" fill="white"/>
</svg>
